#!OML:ASF H:\Terrain\Walking\May29\JustinRory\Justin.ASF
:FULLY-SPECIFIED
:DEGREES
1185
root 12.909 17.0849 -9.04207 -186.638 -201.681 179.562
lowerback 7.41999 -1.81405 -4.52323
upperback 0.615517 -2.74235 1.21565
thorax -3.24902 -1.29393 4.07538
lowerneck -12.0888 -5.88292 -11.1324
upperneck 20.3096 -7.16308 6.18991
head 8.99268 -3.59753 3.11876
rclavicle -6.69656e-014 2.08724e-015
rhumerus -23.1705 36.688 -68.9871
rradius 133.602
rwrist -51.6405
rhand 30.6338 26.3255
rfingers 7.12502
rthumb 54.2759 7.67573
lclavicle -6.69656e-014 2.08724e-015
lhumerus -16.9656 -27.8001 68.67
lradius 130.168
lwrist 41.0972
lhand 42.2223 30.5347
lfingers 7.12502
lthumb 64.2098 38.9746
rfemur -22.1243 -2.67174 11.5407
rtibia 35.5596
rfoot -2.64442 0.266844
rtoes 6.34784
lfemur 0.707679 -0.498549 -16.5219
ltibia 31.9282
lfoot -25.4598 -1.8259
ltoes -19.749
1186
root 12.8824 17.1061 -9.02096 -186.826 -201.866 178.989
lowerback 7.4129 -1.97095 -4.20393
upperback 0.492821 -2.92368 1.30644
thorax -3.36515 -1.3827 4.01006
lowerneck -11.7101 -5.66656 -10.6332
upperneck 19.9922 -6.99822 6.20082
head 8.77658 -3.48693 3.06911
rclavicle -1.88939e-014 3.47873e-015
rhumerus -22.5527 36.6546 -68.7671
rradius 133.589
rwrist -51.4538
rhand 30.2946 25.7037
rfingers 7.12502
rthumb 53.9716 6.84646
lclavicle -1.88939e-014 3.47873e-015
lhumerus -16.8243 -27.1834 68.4614
lradius 129.711
lwrist 40.2173
lhand 42.1318 30.7576
lfingers 7.12502
lthumb 64.137 39.3088
rfemur -22.0335 -2.35924 12.1589
rtibia 35.9439
rfoot -3.22232 0.164922
rtoes 5.78065
lfemur 0.807207 -0.71579 -15.8342
ltibia 31.7136
lfoot -25.3608 -1.87841
ltoes -19.6102
1187
root 12.8562 17.123 -8.99865 -187.039 -201.974 178.372
lowerback 7.19967 -1.86116 -3.80104
upperback 0.618406 -2.72299 1.63047
thorax -3.13783 -1.29517 4.0887
lowerneck -12.0773 -5.83592 -11.5438
upperneck 20.068 -7.16653 6.92434
head 8.95065 -3.55578 3.43881
rclavicle -2.33479e-014 9.93923e-017
rhumerus -21.4337 35.9731 -67.3954
rradius 133.541
rwrist -51.3241
rhand 30.7508 25.7945
rfingers 7.12502
rthumb 54.3807 7.21716
lclavicle -2.33479e-014 9.93923e-017
lhumerus -15.8011 -26.8289 68.6987
lradius 129.089
lwrist 39.3594
lhand 41.877 31.115
lfingers 7.12502
lthumb 63.9317 39.9759
rfemur -21.9099 -2.04222 12.8329
rtibia 36.2887
rfoot -3.69554 -0.025461
rtoes 5.237
lfemur 0.840982 -0.801509 -15.0797
ltibia 31.584
lfoot -25.3574 -2.00278
ltoes -19.3887
1188
root 12.8371 17.1204 -8.98424 -186.877 -202.104 178.505
lowerback 6.90269 -1.80819 -3.85275
upperback 0.714734 -2.64778 1.54911
thorax -2.88065 -1.266 4.01042
lowerneck -12.5362 -5.84224 -11.8358
upperneck 20.3018 -7.1922 7.4659
head 9.14992 -3.52753 3.66519
rclavicle 4.91992e-014 -7.85199e-015
rhumerus -20.2624 35.4545 -66.8131
rradius 133.314
rwrist -50.4232
rhand 30.2395 25.1046
rfingers 7.12502
rthumb 53.9221 6.21406
lclavicle 4.91992e-014 -7.85199e-015
lhumerus -14.7288 -26.6255 68.2653
lradius 128.677
lwrist 38.7191
lhand 40.0601 31.3491
lfingers 7.12502
lthumb 62.445 42.2776
rfemur -21.8994 -1.96645 12.7095
rtibia 36.4879
rfoot -3.8901 0.0423397
rtoes 5.88105
lfemur 0.682481 -0.75321 -15.1115
ltibia 31.5956
lfoot -25.4032 -2.26149
ltoes -18.6387
1189
root 12.8141 17.1012 -8.97026 -186.707 -202.385 178.869
lowerback 6.70962 -1.81122 -4.12248
upperback 0.749495 -2.67345 1.25951
thorax -2.73583 -1.28144 3.85381
lowerneck -12.3641 -5.62927 -10.9923
upperneck 20.1028 -7.03807 7.24925
head 8.98881 -3.4154 3.47298
rclavicle -5.87222e-014 -6.5102e-015
rhumerus -19.2062 34.803 -66.583
rradius 132.985
rwrist -49.5692
rhand 29.1988 23.5067
rfingers 7.12502
rthumb 52.9852 4.00502
lclavicle -5.87222e-014 -6.5102e-015
lhumerus -13.391 -26.5071 67.5957
lradius 127.937
lwrist 37.6591
lhand 38.462 31.4776
lfingers 7.12502
lthumb 61.1084 44.0391
rfemur -21.739 -2.11443 12.3543
rtibia 36.5672
rfoot -4.42235 0.440758
rtoes 4.70626
lfemur 0.576048 -0.607627 -15.3152
ltibia 31.6528
lfoot -25.453 -2.6323
ltoes -18.3896
1190
root 12.7807 17.091 -8.94941 -187.01 -202.691 178.591
lowerback 6.74896 -1.49745 -3.86007
upperback 0.897134 -2.23191 1.36021
thorax -2.65302 -1.0681 3.77257
lowerneck -12.2704 -5.86883 -11.1807
upperneck 19.7709 -7.33551 7.29941
head 8.89862 -3.5638 3.48133
rclavicle 3.4969e-014 -8.00108e-015
rhumerus -17.867 33.0806 -65.0617
rradius 132.237
rwrist -49.616
rhand 28.7202 22.6775
rfingers 7.12502
rthumb 52.5527 2.90597
lclavicle 3.4969e-014 -8.00108e-015
lhumerus -11.0026 -26.965 67.7573
lradius 126.421
lwrist 35.838
lhand 37.8042 31.3732
lfingers 7.12502
lthumb 60.5513 44.5614
rfemur -21.3472 -2.047 12.675
rtibia 36.5754
rfoot -4.99203 0.61696
rtoes 3.01489
lfemur 0.771304 -0.690486 -14.8569
ltibia 31.6467
lfoot -25.5343 -2.76223
ltoes -19.1413
1191
root 12.7509 17.0914 -8.9362 -187.175 -202.942 178.525
lowerback 6.94546 -1.15996 -3.64828
upperback 0.926838 -1.77 1.44415
thorax -2.77856 -0.836792 3.7075
lowerneck -12.4682 -6.14699 -11.8384
upperneck 19.7994 -7.61591 7.55114
head 9.01385 -3.71419 3.6352
rclavicle 9.82586e-015 9.24349e-015
rhumerus -16.117 31.3628 -63.3157
rradius 130.865
rwrist -49.314
rhand 27.2237 21.6692
rfingers 7.12502
rthumb 51.1945 1.09703
lclavicle 9.82586e-015 9.24349e-015
lhumerus -8.5011 -27.6138 68.1312
lradius 124.537
lwrist 33.412
lhand 36.5009 31.0474
lfingers 7.12502
lthumb 59.4368 45.4057
rfemur -21.1448 -1.91422 12.7517
rtibia 36.4382
rfoot -4.69874 0.437555
rtoes 3.7443
lfemur 0.919512 -0.961941 -14.7178
ltibia 31.5957
lfoot -25.4778 -2.73475
ltoes -19.3578
1192
root 12.733 17.0881 -8.92662 -186.898 -203.343 179.252
lowerback 6.92836 -1.06092 -4.11815
upperback 0.904245 -1.68056 1.21051
thorax -2.79396 -0.787538 3.72195
lowerneck -12.5224 -6.06912 -11.7369
upperneck 19.8485 -7.51185 7.49908
head 9.02289 -3.66154 3.61375
rclavicle -2.65983e-014 -8.29926e-015
rhumerus -13.8317 30.228 -61.9733
rradius 129.051
rwrist -47.9889
rhand 25.0209 20.4701
rfingers 7.12502
rthumb 49.1804 -1.1726
lclavicle -2.65983e-014 -8.29926e-015
lhumerus -6.13527 -27.838 67.9658
lradius 122.721
lwrist 30.7535
lhand 34.4714 31.0944
lfingers 7.12502
lthumb 57.6757 47.1032
rfemur -21.0191 -2.26982 11.9725
rtibia 36.1202
rfoot -4.02809 0.0855882
rtoes 7.21936
lfemur 0.901563 -1.1737 -15.4559
ltibia 31.5357
lfoot -25.3517 -2.70901
ltoes -19.1885
1193
root 12.7145 17.086 -8.90636 -187.008 -203.762 179.265
lowerback 6.80017 -1.02789 -4.04986
upperback 0.882851 -1.62909 1.13334
thorax -2.75352 -0.763575 3.59542
lowerneck -11.947 -5.88796 -11.336
upperneck 19.6707 -7.37909 7.40921
head 8.8203 -3.58978 3.5455
rclavicle -2.16714e-014 9.74045e-015
rhumerus -11.663 29.1563 -60.8117
rradius 127.108
rwrist -46.4399
rhand 22.9945 19.485
rfingers 7.12502
rthumb 47.3138 -3.04171
lclavicle -2.16714e-014 9.74045e-015
lhumerus -3.68801 -28.018 67.4808
lradius 120.878
lwrist 28.1294
lhand 32.5131 31.1996
lfingers 7.12502
lthumb 55.951 48.6273
rfemur -20.5741 -2.63503 11.9478
rtibia 35.6952
rfoot -4.33959 -0.146795
rtoes 7.90505
lfemur 0.996887 -1.37515 -15.4183
ltibia 31.5061
lfoot -25.3821 -2.81517
ltoes -19.3117
1194
root 12.6861 17.0892 -8.88497 -187.404 -203.991 178.564
lowerback 6.54972 -0.949333 -3.51516
upperback 0.889984 -1.47025 1.33917
thorax -2.62873 -0.69205 3.48722
lowerneck -11.2545 -5.743 -11.3591
upperneck 19.5204 -7.27823 7.58924
head 8.63841 -3.54077 3.63811
rclavicle -2.4091e-014 1.73191e-014
rhumerus -9.34214 28.0026 -59.4903
rradius 124.846
rwrist -44.7479
rhand 21.26 18.3689
rfingers 7.12502
rthumb 45.707 -4.84662
lclavicle -2.4091e-014 1.73191e-014
lhumerus -0.792595 -28.3665 67.0576
lradius 118.535
lwrist 25.1482
lhand 30.0882 31.2233
lfingers 7.12502
lthumb 53.7863 50.2048
rfemur -20.1147 -2.6635 12.7414
rtibia 35.2334
rfoot -5.43625 -0.0872243
rtoes 2.78543
lfemur 1.05926 -1.5158 -14.568
ltibia 31.5334
lfoot -25.482 -3.09816
ltoes -18.9546
